<svg width="245" height="238" viewBox="0 0 245 238" fill="none" xmlns="http://www.w3.org/2000/svg">
<g clip-path="url(#clip0_0_429)">
<path d="M9.31641 91.8789C9.31641 78.8581 14.0039 68.181 23.3789 59.8477C32.7539 51.4492 44.7331 47.25 59.3164 47.25C73.3138 47.25 84.8372 51.0586 93.8867 58.6758C103.001 66.293 107.559 75.8307 107.559 87.2891C107.559 95.1667 105.345 102.621 100.918 109.652C96.556 116.618 89.2969 125.212 79.1406 135.434L44.2773 169.906V170.395H109.707V191H10.6836V174.008L62.5391 122.445C70.5469 114.242 75.9505 107.829 78.75 103.207C81.5495 98.5846 82.9492 93.6367 82.9492 88.3633C82.9492 82.5039 80.6055 77.556 75.918 73.5195C71.2956 69.4831 65.5013 67.4648 58.5352 67.4648C51.1784 67.4648 45.0586 69.776 40.1758 74.3984C35.3581 79.0208 32.9492 84.8151 32.9492 91.7812V92.1719H9.31641V91.8789ZM181.484 193.832C165.208 193.832 151.992 190.023 141.836 182.406C131.68 174.789 126.602 164.958 126.602 152.914C126.602 143.799 129.531 135.954 135.391 129.379C141.315 122.738 149.062 118.507 158.633 116.684V116.195C150.625 114.112 144.212 110.206 139.395 104.477C134.577 98.6823 132.168 91.9766 132.168 84.3594C132.168 73.6172 136.79 64.763 146.035 57.7969C155.345 50.7656 167.161 47.25 181.484 47.25C195.872 47.25 207.656 50.7656 216.836 57.7969C226.081 64.763 230.703 73.6497 230.703 84.457C230.703 92.0091 228.294 98.6497 223.477 104.379C218.724 110.108 212.344 114.047 204.336 116.195V116.684C213.971 118.572 221.719 122.836 227.578 129.477C233.503 136.052 236.465 143.865 236.465 152.914C236.465 164.958 231.354 174.789 221.133 182.406C210.911 190.023 197.695 193.832 181.484 193.832ZM160.781 167.953C166.185 172.38 173.086 174.594 181.484 174.594C189.883 174.594 196.784 172.38 202.188 167.953C207.591 163.526 210.293 157.895 210.293 151.059C210.293 144.158 207.591 138.493 202.188 134.066C196.849 129.639 189.948 127.426 181.484 127.426C173.086 127.426 166.185 129.672 160.781 134.164C155.378 138.591 152.676 144.223 152.676 151.059C152.676 157.895 155.378 163.526 160.781 167.953ZM181.484 108.188C188.581 108.188 194.408 106.234 198.965 102.328C203.522 98.3568 205.801 93.3438 205.801 87.2891C205.801 81.1693 203.522 76.1562 198.965 72.25C194.408 68.2786 188.581 66.293 181.484 66.293C174.323 66.293 168.464 68.2786 163.906 72.25C159.349 76.1562 157.07 81.1693 157.07 87.2891C157.07 93.3438 159.349 98.3568 163.906 102.328C168.464 106.234 174.323 108.188 181.484 108.188Z" fill="white"/>
<path d="M46.1578 231H38.6695V214.09H46.0289C47.6148 214.09 48.8727 214.469 49.8023 215.227C50.732 215.984 51.1969 217.012 51.1969 218.309C51.1969 219.23 50.8922 220.039 50.2828 220.734C49.6813 221.43 48.9273 221.844 48.0211 221.977V222.07C49.1773 222.156 50.1305 222.582 50.8805 223.348C51.6305 224.113 52.0055 225.051 52.0055 226.16C52.0055 227.652 51.482 228.832 50.4352 229.699C49.3883 230.566 47.9625 231 46.1578 231ZM42.2086 216.727V221.121H44.7516C45.6969 221.121 46.4273 220.926 46.943 220.535C47.4586 220.137 47.7164 219.578 47.7164 218.859C47.7164 218.18 47.4898 217.656 47.0367 217.289C46.5836 216.914 45.943 216.727 45.1148 216.727H42.2086ZM42.2086 228.363H45.2555C46.2789 228.363 47.0563 228.152 47.5875 227.73C48.1266 227.301 48.3961 226.684 48.3961 225.879C48.3961 225.09 48.1188 224.488 47.5641 224.074C47.0172 223.66 46.2203 223.453 45.1734 223.453H42.2086V228.363ZM53.5867 231V218.438H57.0086V231H53.5867ZM56.5984 216.539C56.2469 216.883 55.8133 217.055 55.2977 217.055C54.782 217.055 54.3484 216.883 53.9969 216.539C53.6453 216.195 53.4695 215.777 53.4695 215.285C53.4695 214.785 53.6453 214.367 53.9969 214.031C54.3484 213.688 54.782 213.516 55.2977 213.516C55.8133 213.516 56.2469 213.688 56.5984 214.031C56.95 214.367 57.1258 214.785 57.1258 215.285C57.1258 215.777 56.95 216.195 56.5984 216.539ZM64.8945 228.328C65.7539 228.328 66.4336 228.008 66.9336 227.367C67.4414 226.719 67.6953 225.828 67.6953 224.695C67.6953 223.562 67.4414 222.66 66.9336 221.988C66.4258 221.316 65.7461 220.98 64.8945 220.98C64.0508 220.98 63.3789 221.316 62.8789 221.988C62.3867 222.652 62.1406 223.555 62.1406 224.695C62.1406 225.836 62.3867 226.727 62.8789 227.367C63.3711 228.008 64.043 228.328 64.8945 228.328ZM64.8359 235.734C63.2031 235.734 61.8594 235.375 60.8047 234.656C59.7578 233.945 59.1641 233.023 59.0234 231.891H62.375C62.5078 232.328 62.8047 232.68 63.2656 232.945C63.7344 233.219 64.2891 233.355 64.9297 233.355C65.7969 233.355 66.4727 233.133 66.957 232.688C67.4414 232.25 67.6836 231.66 67.6836 230.918V228.715H67.6133C67.3164 229.395 66.8203 229.941 66.125 230.355C65.4297 230.762 64.6328 230.965 63.7344 230.965C62.1875 230.965 60.9492 230.402 60.0195 229.277C59.0977 228.152 58.6367 226.617 58.6367 224.672C58.6367 222.68 59.0977 221.109 60.0195 219.961C60.9414 218.812 62.1992 218.238 63.793 218.238C64.6836 218.238 65.4688 218.453 66.1484 218.883C66.8281 219.312 67.3359 219.895 67.6719 220.629H67.7305V218.438H71.1055V230.824C71.1055 232.316 70.5313 233.508 69.3828 234.398C68.2422 235.289 66.7266 235.734 64.8359 235.734ZM78.7805 220.699C78.0383 220.699 77.4172 220.953 76.9172 221.461C76.425 221.969 76.1477 222.617 76.0852 223.406H81.4172C81.3781 222.602 81.1164 221.949 80.632 221.449C80.1555 220.949 79.5383 220.699 78.7805 220.699ZM81.4641 227.156H84.6047C84.4172 228.391 83.8 229.387 82.7531 230.145C81.7141 230.895 80.4211 231.27 78.8742 231.27C76.9445 231.27 75.4289 230.691 74.3273 229.535C73.2336 228.379 72.6867 226.793 72.6867 224.777C72.6867 222.77 73.2336 221.168 74.3273 219.973C75.4211 218.77 76.8938 218.168 78.7453 218.168C80.5656 218.168 82.0148 218.738 83.093 219.879C84.1711 221.02 84.7102 222.547 84.7102 224.461V225.504H76.05V225.715C76.05 226.613 76.3117 227.344 76.8352 227.906C77.3664 228.461 78.0656 228.738 78.9328 228.738C79.5578 228.738 80.0969 228.598 80.55 228.316C81.0031 228.027 81.3078 227.641 81.4641 227.156ZM86.0688 222.129C86.0688 220.934 86.5492 219.977 87.5102 219.258C88.4711 218.531 89.7563 218.168 91.3656 218.168C92.9359 218.168 94.1977 218.535 95.1508 219.27C96.1039 220.004 96.5922 220.98 96.6156 222.199H93.4633C93.4242 221.691 93.2133 221.293 92.8305 221.004C92.4555 220.715 91.9516 220.57 91.3188 220.57C90.725 220.57 90.2484 220.695 89.8891 220.945C89.5375 221.188 89.3617 221.512 89.3617 221.918C89.3617 222.527 89.9086 222.961 91.0023 223.219L93.4047 223.734C94.6625 224.016 95.5648 224.426 96.1117 224.965C96.6664 225.496 96.9438 226.23 96.9438 227.168C96.9438 228.402 96.4281 229.395 95.3969 230.145C94.3656 230.895 93.018 231.27 91.3539 231.27C89.6977 231.27 88.3734 230.902 87.3813 230.168C86.3891 229.434 85.8461 228.445 85.7523 227.203H89.0922C89.1781 227.734 89.4203 228.145 89.8188 228.434C90.225 228.723 90.768 228.867 91.4477 228.867C92.0961 228.867 92.6039 228.75 92.9711 228.516C93.3461 228.273 93.5336 227.945 93.5336 227.531C93.5336 227.211 93.4164 226.957 93.182 226.77C92.9477 226.574 92.5492 226.41 91.9867 226.277L89.6664 225.762C87.268 225.215 86.0688 224.004 86.0688 222.129ZM99.3688 215.543H102.791V218.438H105.111V221.016H102.791V227.027C102.791 227.973 103.283 228.445 104.267 228.445C104.588 228.445 104.865 228.426 105.099 228.387V230.906C104.701 231 104.158 231.047 103.47 231.047C101.994 231.047 100.939 230.781 100.306 230.25C99.6813 229.719 99.3688 228.84 99.3688 227.613V221.016H97.5992V218.438H99.3688V215.543ZM119.125 231H111.637V214.09H118.996C120.582 214.09 121.84 214.469 122.77 215.227C123.699 215.984 124.164 217.012 124.164 218.309C124.164 219.23 123.859 220.039 123.25 220.734C122.648 221.43 121.895 221.844 120.988 221.977V222.07C122.145 222.156 123.098 222.582 123.848 223.348C124.598 224.113 124.973 225.051 124.973 226.16C124.973 227.652 124.449 228.832 123.402 229.699C122.355 230.566 120.93 231 119.125 231ZM115.176 216.727V221.121H117.719C118.664 221.121 119.395 220.926 119.91 220.535C120.426 220.137 120.684 219.578 120.684 218.859C120.684 218.18 120.457 217.656 120.004 217.289C119.551 216.914 118.91 216.727 118.082 216.727H115.176ZM115.176 228.363H118.223C119.246 228.363 120.023 228.152 120.555 227.73C121.094 227.301 121.363 226.684 121.363 225.879C121.363 225.09 121.086 224.488 120.531 224.074C119.984 223.66 119.188 223.453 118.141 223.453H115.176V228.363ZM126.495 231V218.438H129.8V220.699H129.87C130.089 219.902 130.456 219.293 130.972 218.871C131.488 218.449 132.116 218.238 132.859 218.238C133.218 218.238 133.542 218.281 133.831 218.367V221.379C133.511 221.246 133.097 221.18 132.589 221.18C131.745 221.18 131.089 221.426 130.62 221.918C130.152 222.41 129.917 223.098 129.917 223.98V231H126.495ZM139.584 228.727C140.342 228.727 140.983 228.508 141.506 228.07C142.037 227.625 142.303 227.066 142.303 226.395V225.48L139.655 225.645C139.014 225.691 138.518 225.852 138.166 226.125C137.823 226.398 137.651 226.758 137.651 227.203C137.651 227.672 137.827 228.043 138.178 228.316C138.53 228.59 138.998 228.727 139.584 228.727ZM138.459 231.199C137.248 231.199 136.245 230.844 135.448 230.133C134.651 229.422 134.252 228.508 134.252 227.391C134.252 226.25 134.674 225.355 135.518 224.707C136.362 224.059 137.569 223.688 139.139 223.594L142.303 223.406V222.574C142.303 221.996 142.112 221.543 141.729 221.215C141.354 220.887 140.842 220.723 140.194 220.723C139.569 220.723 139.057 220.863 138.659 221.145C138.268 221.426 138.03 221.805 137.944 222.281H134.815C134.877 221.047 135.405 220.055 136.397 219.305C137.389 218.547 138.705 218.168 140.346 218.168C141.955 218.168 143.245 218.551 144.213 219.316C145.182 220.082 145.666 221.098 145.666 222.363V231H142.362V229.078H142.291C141.948 229.734 141.424 230.254 140.721 230.637C140.018 231.012 139.264 231.199 138.459 231.199ZM147.681 231V218.438H150.986V220.676H151.056C151.4 219.879 151.9 219.27 152.556 218.848C153.22 218.418 154.029 218.203 154.982 218.203C156.373 218.203 157.447 218.617 158.205 219.445C158.963 220.273 159.341 221.426 159.341 222.902V231H155.92V223.617C155.92 222.789 155.724 222.152 155.334 221.707C154.943 221.262 154.369 221.039 153.611 221.039C152.853 221.039 152.244 221.293 151.783 221.801C151.33 222.309 151.103 222.973 151.103 223.793V231H147.681ZM165.973 231.199C164.403 231.199 163.157 230.617 162.235 229.453C161.313 228.289 160.852 226.703 160.852 224.695C160.852 222.703 161.313 221.129 162.235 219.973C163.165 218.816 164.419 218.238 165.997 218.238C166.888 218.238 167.669 218.453 168.341 218.883C169.02 219.312 169.516 219.883 169.829 220.594H169.899V214.09H173.321V231H169.946V228.844H169.888C169.575 229.555 169.071 230.125 168.376 230.555C167.68 230.984 166.88 231.199 165.973 231.199ZM167.134 220.98C166.274 220.98 165.595 221.316 165.095 221.988C164.602 222.66 164.356 223.57 164.356 224.719C164.356 225.875 164.602 226.785 165.095 227.449C165.595 228.113 166.274 228.445 167.134 228.445C167.985 228.445 168.661 228.113 169.161 227.449C169.669 226.777 169.923 225.867 169.923 224.719C169.923 223.578 169.669 222.672 169.161 222C168.661 221.32 167.985 220.98 167.134 220.98ZM175.465 231V218.438H178.887V231H175.465ZM178.477 216.539C178.125 216.883 177.691 217.055 177.176 217.055C176.66 217.055 176.227 216.883 175.875 216.539C175.523 216.195 175.348 215.777 175.348 215.285C175.348 214.785 175.523 214.367 175.875 214.031C176.227 213.688 176.66 213.516 177.176 213.516C177.691 213.516 178.125 213.688 178.477 214.031C178.828 214.367 179.004 214.785 179.004 215.285C179.004 215.777 178.828 216.195 178.477 216.539ZM180.972 231V218.438H184.277V220.676H184.347C184.691 219.879 185.191 219.27 185.847 218.848C186.511 218.418 187.32 218.203 188.273 218.203C189.663 218.203 190.737 218.617 191.495 219.445C192.253 220.273 192.632 221.426 192.632 222.902V231H189.21V223.617C189.21 222.789 189.015 222.152 188.624 221.707C188.234 221.262 187.659 221.039 186.902 221.039C186.144 221.039 185.534 221.293 185.073 221.801C184.62 222.309 184.394 222.973 184.394 223.793V231H180.972ZM200.401 228.328C201.26 228.328 201.94 228.008 202.44 227.367C202.948 226.719 203.202 225.828 203.202 224.695C203.202 223.562 202.948 222.66 202.44 221.988C201.932 221.316 201.252 220.98 200.401 220.98C199.557 220.98 198.885 221.316 198.385 221.988C197.893 222.652 197.647 223.555 197.647 224.695C197.647 225.836 197.893 226.727 198.385 227.367C198.877 228.008 199.549 228.328 200.401 228.328ZM200.342 235.734C198.709 235.734 197.366 235.375 196.311 234.656C195.264 233.945 194.67 233.023 194.53 231.891H197.881C198.014 232.328 198.311 232.68 198.772 232.945C199.241 233.219 199.795 233.355 200.436 233.355C201.303 233.355 201.979 233.133 202.463 232.688C202.948 232.25 203.19 231.66 203.19 230.918V228.715H203.12C202.823 229.395 202.327 229.941 201.631 230.355C200.936 230.762 200.139 230.965 199.241 230.965C197.694 230.965 196.455 230.402 195.526 229.277C194.604 228.152 194.143 226.617 194.143 224.672C194.143 222.68 194.604 221.109 195.526 219.961C196.448 218.812 197.705 218.238 199.299 218.238C200.19 218.238 200.975 218.453 201.655 218.883C202.334 219.312 202.842 219.895 203.178 220.629H203.237V218.438H206.612V230.824C206.612 232.316 206.038 233.508 204.889 234.398C203.748 235.289 202.233 235.734 200.342 235.734Z" fill="white"/>
</g>
<defs>
<clipPath id="clip0_0_429">
<rect width="245" height="238" fill="white"/>
</clipPath>
</defs>
</svg>
